<svg width="32" height="34" viewBox="0 0 32 34" fill="none" xmlns="http://www.w3.org/2000/svg">
<path d="M15.8247 0C7.09904 0 0 7.62625 0 16.9999C0 26.3735 7.09904 33.9998 15.8247 33.9998C24.5503 33.9998 31.6493 26.3735 31.6493 16.9999C31.6493 7.62625 24.5503 0 15.8247 0ZM15.8247 27.4614C14.2346 27.4614 12.9701 26.7372 12.8005 25.2072C12.796 25.1615 12.8005 25.1153 12.8138 25.0716C12.8271 25.0278 12.8488 24.9876 12.8775 24.9535C12.9062 24.9194 12.9413 24.8922 12.9805 24.8737C13.0196 24.8552 13.062 24.8457 13.1048 24.846H18.5407C18.584 24.8456 18.6268 24.8552 18.6663 24.874C18.7058 24.8929 18.7411 24.9205 18.7699 24.9552C18.7987 24.9898 18.8203 25.0306 18.8333 25.075C18.8462 25.1193 18.8502 25.166 18.8451 25.2121C18.6511 26.7135 17.398 27.4614 15.8247 27.4614ZM23.2805 23.5383H8.36882C7.46803 23.5383 6.99938 22.3123 7.51748 21.6585C8.75987 20.0778 9.63783 19.4134 9.63783 15.0547C9.63783 11.0606 11.5961 9.64335 13.2136 8.95191C13.3249 8.90208 13.4253 8.82775 13.5082 8.73372C13.5912 8.63969 13.6549 8.52804 13.6952 8.40595C13.9759 7.40476 14.7702 6.53842 15.8247 6.53842C16.8791 6.53842 17.6719 7.40476 17.9549 8.40677C17.9955 8.52883 18.0594 8.64044 18.1424 8.73446C18.2255 8.82847 18.3259 8.90281 18.4373 8.95273C20.0509 9.64253 22.013 11.0622 22.013 15.0555C22.013 19.4142 22.8902 20.0787 24.1326 21.6593C24.6454 22.3123 24.176 23.5383 23.2805 23.5383Z" fill="#3683F0"/>
</svg>
